<svg xmlns="http://www.w3.org/2000/svg" viewBox="0 0 64 64">
  <defs>
    <linearGradient id="bg" x1="0" y1="0" x2="0" y2="1">
      <stop offset="0" stop-color="#6B4BE0"/>
      <stop offset="1" stop-color="#4C32A8"/>
    </linearGradient>
  </defs>
  <rect width="64" height="64" rx="14.5" fill="url(#bg)"/>
  <path d="M13 22 C14 31 16.5 43 21 43 C24.4 43 26.8 36.8 29.2 30.8 C30.6 27.3 31.2 25.2 32 25.2 C32.8 25.2 33.4 27.3 34.8 30.8 C37.2 36.8 39.6 43 43 43 C47.5 43 50 31 51 22"
        fill="none" stroke="#FFFFFF" stroke-width="6" stroke-linecap="round" stroke-linejoin="round"/>
  <path d="M49.5 10 C50.1 12.6 51.2 13.7 53.8 14.3 C51.2 14.9 50.1 16 49.5 18.6 C48.9 16 47.8 14.9 45.2 14.3 C47.8 13.7 48.9 12.6 49.5 10 Z"
        fill="#DDD5FC"/>
</svg>
